<?xml version="1.0" standalone="no"?>
<!DOCTYPE svg PUBLIC "-//W3C//DTD SVG 20010904//EN"
 "http://www.w3.org/TR/2001/REC-SVG-20010904/DTD/svg10.dtd">
<svg version="1.0" xmlns="http://www.w3.org/2000/svg"
 width="120.000000pt" height="120.000000pt" viewBox="0 0 120.000000 120.000000"
 preserveAspectRatio="xMidYMid meet">
<metadata>
Created by potrace 1.14, written by Peter Selinger 2001-2017
</metadata>
<g transform="translate(0.000000,120.000000) scale(0.100000,-0.100000)"
fill="#000000" stroke="none">
<path d="M514 1169 c-4 -6 33 -50 85 -103 l91 -91 -46 -46 -46 -47 -89 89
c-49 49 -92 89 -96 89 -4 0 -69 -61 -144 -136 l-137 -137 94 -91 94 -91 -95
-95 -95 -95 183 -180 c100 -99 195 -190 211 -203 35 -27 110 -30 145 -6 l23
17 -93 93 -94 94 48 47 47 48 93 -93 93 -92 137 135 c75 74 137 139 137 143 0
4 -41 47 -91 96 l-90 90 93 93 93 93 -196 195 -195 195 -76 0 c-45 0 -80 -5
-84 -11z m-57 -426 l-47 -48 -46 47 -47 46 49 46 48 47 45 -46 46 -45 -48 -47z
m377 0 c-25 -23 -46 -43 -48 -43 -7 0 -86 80 -86 87 0 4 19 27 42 50 l42 43
47 -46 48 -47 -45 -44z m-186 -96 l43 -44 -47 -47 -48 -47 -45 45 -45 46 44
45 c24 25 47 45 50 45 3 0 25 -20 48 -43z m-148 -227 c0 -8 -79 -90 -87 -90
-4 0 -27 19 -50 42 l-43 42 47 48 47 48 43 -42 c24 -23 43 -45 43 -48z m338
-47 c-23 -24 -47 -43 -52 -43 -6 0 -29 19 -53 43 l-42 42 47 48 46 47 48 -47
48 -47 -42 -43z"/>
<path d="M14 658 c-18 -36 -15 -95 8 -127 15 -21 16 -20 62 26 l47 46 -43 44
c-23 24 -46 43 -50 43 -4 0 -15 -14 -24 -32z"/>
<path d="M1110 645 l-44 -45 44 -45 c49 -50 62 -48 81 14 11 38 -5 111 -26
118 -6 2 -31 -17 -55 -42z"/>
</g>
</svg>
